<svg width="78" height="46" viewBox="0 0 78 46" fill="none" xmlns="http://www.w3.org/2000/svg">
<path fill-rule="evenodd" clip-rule="evenodd" d="M60 0.533203H7.5C3.35786 0.533203 0 3.89107 0 8.0332V38.0332C0 42.1753 3.35786 45.5332 7.5 45.5332H60C64.1421 45.5332 67.5 42.1753 67.5 38.0332V8.0332C67.5 3.89107 64.1421 0.533203 60 0.533203ZM62.5 38.0332C62.5 39.4139 61.3807 40.5332 60 40.5332H7.5C6.11929 40.5332 5 39.4139 5 38.0332V8.0332C5 6.65249 6.11929 5.5332 7.5 5.5332H60C61.3807 5.5332 62.5 6.65249 62.5 8.0332V38.0332ZM77.5 13.0332V33.0332C77.5 34.4139 76.3807 35.5332 75 35.5332C73.6193 35.5332 72.5 34.4139 72.5 33.0332V13.0332C72.5 11.6525 73.6193 10.5332 75 10.5332C76.3807 10.5332 77.5 11.6525 77.5 13.0332ZM40.8781 21.7176C41.3344 22.4551 41.3758 23.3764 40.9875 24.152L35.9875 34.152C35.3696 35.3877 33.867 35.8886 32.6312 35.2707C31.3955 34.6528 30.8946 33.1502 31.5125 31.9145L34.7062 25.5332H28.75C27.8831 25.5338 27.0777 25.0853 26.6218 24.3479C26.1659 23.6106 26.1246 22.6897 26.5125 21.9145L31.5125 11.9145C32.1304 10.6787 33.633 10.1778 34.8687 10.7957C36.1045 11.4136 36.6054 12.9162 35.9875 14.152L32.7938 20.5332H38.75C39.6167 20.5324 40.422 20.9806 40.8781 21.7176Z" fill="white"/>
</svg>
