<svg width="61" height="61" viewBox="0 0 61 61" fill="none" xmlns="http://www.w3.org/2000/svg">
<path fill-rule="evenodd" clip-rule="evenodd" d="M60.4281 36.9363C60.5865 37.5803 60.4826 38.2609 60.1391 38.8282C59.7957 39.3955 59.2409 39.8031 58.5969 39.9613L50.8969 41.8363L52.9156 49.3707C53.0874 50.0114 52.9975 50.694 52.6658 51.2684C52.334 51.8428 51.7876 52.2618 51.1469 52.4332C50.9364 52.4939 50.719 52.5275 50.5 52.5332C49.3693 52.5321 48.3801 51.7723 48.0875 50.6801L45.675 41.6801L33 34.3645V48.9988L39.7687 55.7645C40.7456 56.7413 40.7456 58.3251 39.7687 59.3019C38.7919 60.2788 37.2081 60.2788 36.2312 59.3019L30.5 53.5676L24.7687 59.3019C23.7919 60.2788 22.2081 60.2788 21.2312 59.3019C20.2544 58.3251 20.2544 56.7413 21.2312 55.7645L28 48.9988V34.3645L15.3281 41.6801L12.9156 50.6801C12.6228 51.7734 11.6319 52.5335 10.5 52.5332C10.2806 52.5328 10.0622 52.5045 9.85 52.4488C9.20923 52.2774 8.66283 51.8584 8.33109 51.284C7.99936 50.7097 7.90948 50.027 8.08125 49.3863L10.1 41.852L2.4 39.977C1.05898 39.6473 0.239105 38.293 0.56875 36.952C0.898396 35.6109 2.25273 34.7911 3.59375 35.1207L12.7969 37.3801L25.5 30.0332L12.8 22.702L3.59688 24.9613C3.40162 25.0097 3.20115 25.0338 3 25.0332C1.73489 25.0341 0.668528 24.0897 0.516414 22.8338C0.364301 21.5779 1.17439 20.4063 2.40312 20.1051L10.1031 18.2301L8.08437 10.6801C7.72712 9.34597 8.51901 7.97484 9.85312 7.61758C11.1872 7.26032 12.5584 8.05221 12.9156 9.38633L15.3281 18.3863L28 25.702V11.0676L21.2312 4.30195C20.2544 3.3251 20.2544 1.74131 21.2312 0.764453C22.2081 -0.212401 23.7919 -0.212401 24.7687 0.764453L30.5 6.49883L36.2312 0.764453C37.2081 -0.212401 38.7919 -0.212401 39.7687 0.764453C40.7456 1.74131 40.7456 3.3251 39.7687 4.30195L33 11.0676V25.702L45.6719 18.3863L48.0844 9.38633C48.4416 8.05221 49.8128 7.26032 51.1469 7.61758C52.481 7.97484 53.2729 9.34597 52.9156 10.6801L50.8969 18.2145L58.5969 20.0895C59.8617 20.3596 60.7117 21.5499 60.5567 22.834C60.4017 24.118 59.2928 25.0719 58 25.0332C57.7988 25.0338 57.5984 25.0097 57.4031 24.9613L48.2 22.702L35.5 30.0332L48.2 37.3645L57.4031 35.1051C58.0471 34.9467 58.7276 35.0506 59.295 35.3941C59.8623 35.7375 60.2699 36.2923 60.4281 36.9363Z" fill="white"/>
</svg>
