<svg width="75" height="64" viewBox="0 0 75 64" fill="none" xmlns="http://www.w3.org/2000/svg">
<path fill-rule="evenodd" clip-rule="evenodd" d="M75 31.7832C74.9933 25.0247 71.1028 18.8717 65 15.9676V15.5332C64.9941 8.91925 60.6569 3.08973 54.3237 1.18329C47.9905 -0.723161 41.156 1.74345 37.5 7.25508C33.844 1.74345 27.0095 -0.723161 20.6763 1.18329C14.3431 3.08973 10.0059 8.91925 10 15.5332V15.9676C3.89152 18.864 -0.00234413 25.0197 -0.00234413 31.7801C-0.00234413 38.5404 3.89152 44.6962 10 47.5926V48.0332C10.0059 54.6472 14.3431 60.4767 20.6763 62.3831C27.0095 64.2896 33.844 61.823 37.5 56.3113C41.156 61.823 47.9905 64.2896 54.3237 62.3831C60.6569 60.4767 64.9941 54.6472 65 48.0332V47.5926C71.1018 44.6907 74.9924 38.5399 75 31.7832ZM25 58.0332C19.8938 58.0325 15.6083 54.1848 15.0594 49.1082C15.8678 49.2235 16.6834 49.282 17.5 49.2832H20C21.3807 49.2832 22.5 48.1639 22.5 46.7832C22.5 45.4025 21.3807 44.2832 20 44.2832H17.5C11.4062 44.2903 6.19525 39.9022 5.16524 33.896C4.13524 27.8898 7.58635 22.0162 13.3344 19.9926C14.3326 19.6392 14.9998 18.6952 15 17.6363V15.5332C15 10.0104 19.4772 5.5332 25 5.5332C30.5228 5.5332 35 10.0104 35 15.5332V36.8645C32.2547 34.3953 28.6923 33.0305 25 33.0332C23.6193 33.0332 22.5 34.1525 22.5 35.5332C22.5 36.9139 23.6193 38.0332 25 38.0332C30.5228 38.0332 35 42.5104 35 48.0332C35 53.556 30.5228 58.0332 25 58.0332ZM57.5 44.2832H55C53.6193 44.2832 52.5 45.4025 52.5 46.7832C52.5 48.1639 53.6193 49.2832 55 49.2832H57.5C58.3166 49.282 59.1322 49.2235 59.9406 49.1082C59.3619 54.4603 54.6501 58.3939 49.2807 58.0074C43.9112 57.6209 39.8113 53.0532 40.0051 47.6733C40.1988 42.2935 44.6167 38.0324 50 38.0332C51.3807 38.0332 52.5 36.9139 52.5 35.5332C52.5 34.1525 51.3807 33.0332 50 33.0332C46.3077 33.0305 42.7453 34.3953 40 36.8645V15.5332C40 10.0104 44.4771 5.5332 50 5.5332C55.5228 5.5332 60 10.0104 60 15.5332V17.6363C60.0002 18.6952 60.6674 19.6392 61.6656 19.9926C67.4137 22.0162 70.8648 27.8898 69.8348 33.896C68.8047 39.9022 63.5938 44.2903 57.5 44.2832ZM62.5 28.0332C62.5 29.4139 61.3807 30.5332 60 30.5332H58.75C52.5368 30.5332 47.5 25.4964 47.5 19.2832V18.0332C47.5 16.6525 48.6193 15.5332 50 15.5332C51.3807 15.5332 52.5 16.6525 52.5 18.0332V19.2832C52.5 22.735 55.2982 25.5332 58.75 25.5332H60C61.3807 25.5332 62.5 26.6525 62.5 28.0332ZM16.25 30.5332H15C13.6193 30.5332 12.5 29.4139 12.5 28.0332C12.5 26.6525 13.6193 25.5332 15 25.5332H16.25C19.7018 25.5332 22.5 22.735 22.5 19.2832V18.0332C22.5 16.6525 23.6193 15.5332 25 15.5332C26.3807 15.5332 27.5 16.6525 27.5 18.0332V19.2832C27.5 25.4964 22.4632 30.5332 16.25 30.5332Z" fill="white"/>
</svg>
