<svg width="52" height="50" viewBox="0 0 52 50" fill="none" xmlns="http://www.w3.org/2000/svg">
<g clip-path="url(#clip0_144_341)">
<path d="M9.28165 2.87487C12.1644 2.69192 15.1978 4.00992 17.0621 6.28375C18.1767 7.64282 18.6233 9.86625 20.3442 10.4226C20.7019 10.5383 21.0268 10.585 21.33 10.5831C22.5372 10.5757 23.4521 10.038 23.8769 9.75797C26.5399 7.99379 32.4325 2.83007 36.5769 1.08269C41.3802 -0.940979 47.968 -0.117696 50.5349 3.48907C51.8274 5.30739 51.9454 7.61296 51.9835 8.38397C52.1306 11.2776 51.0305 13.445 50.052 15.3231C49.9359 15.5471 48.3402 18.5639 45.9349 20.8303C37.6988 28.5908 22.5916 25.0774 19.0681 32.5299C18.9791 32.7184 17.8046 35.2723 18.8266 36.5959C20.5058 38.7727 27.8669 37.2904 32.5469 34.1652C33.6669 33.4185 36.065 31.7719 39.7065 30.8534C40.2039 30.7284 40.7067 30.6481 41.3022 30.5921C48.5399 29.9032 53.9677 36.8479 51.2883 43.9289C48.5798 51.0864 38.8842 52.1729 34.6908 45.82C33.8412 44.5338 33.6923 43.1206 32.084 42.5194C31.1654 42.1759 30.6026 42.2898 29.6986 42.5848C28.034 43.1262 20.2299 47.6664 15.6734 49.0198C14.419 49.3932 8.69711 51.092 4.30402 48.0453C2.04031 46.4753 1.03644 44.2761 0.834936 43.8132C-0.546527 40.6582 0.137851 37.7179 0.393812 36.678C1.76801 31.0924 6.78376 28.3313 7.80034 27.7731C9.45229 26.864 12.8415 26.2311 19.5528 25.0027C24.8281 24.0357 27.1208 23.765 28.5622 21.689C29.6314 20.1508 30.1543 17.7332 29.2085 16.7101C27.7417 15.1233 23.0654 17.2329 19.56 18.8141C15.2595 20.7538 13.5132 22.3182 9.97147 22.3985C8.86231 22.4227 7.65693 22.2155 6.28817 21.6573C-2.99177 17.8713 -0.797041 3.51147 9.28165 2.87487Z" fill="#6ECFBB"/>
</g>
<defs>
<clipPath id="clip0_144_341">
<rect width="52" height="50" fill="white"/>
</clipPath>
</defs>
</svg>
