<svg width="75" height="56" viewBox="0 0 75 56" fill="none" xmlns="http://www.w3.org/2000/svg">
<path fill-rule="evenodd" clip-rule="evenodd" d="M52.5 23.0332H45C43.6193 23.0332 42.5 21.9139 42.5 20.5332C42.5 19.1525 43.6193 18.0332 45 18.0332H52.5C53.8807 18.0332 55 19.1525 55 20.5332C55 21.9139 53.8807 23.0332 52.5 23.0332ZM30 18.0332H27.5V15.5332C27.5 14.1525 26.3807 13.0332 25 13.0332C23.6193 13.0332 22.5 14.1525 22.5 15.5332V18.0332H20C18.6193 18.0332 17.5 19.1525 17.5 20.5332C17.5 21.9139 18.6193 23.0332 20 23.0332H22.5V25.5332C22.5 26.9139 23.6193 28.0332 25 28.0332C26.3807 28.0332 27.5 26.9139 27.5 25.5332V23.0332H30C31.3807 23.0332 32.5 21.9139 32.5 20.5332C32.5 19.1525 31.3807 18.0332 30 18.0332ZM72.9625 50.7363C71.0552 53.4599 68.0409 55.2003 64.7285 55.4903C61.4162 55.7803 58.1453 54.5902 55.7937 52.2394C55.7562 52.202 55.7188 52.1645 55.6844 52.1238L43.275 38.0332H31.7125L19.3156 52.1238L19.2062 52.2394C17.0944 54.3468 14.2334 55.5312 11.25 55.5332C7.92538 55.532 4.77156 54.0603 2.63496 51.5131C0.498359 48.966 -0.402191 45.6042 0.175 42.3301C0.173495 42.3155 0.173495 42.3009 0.175 42.2863L5.29063 16.0082C6.8622 7.06157 14.632 0.53578 23.7156 0.533203H51.25C60.3025 0.547645 68.0557 7.01959 69.6875 15.9238C69.6875 15.9426 69.6875 15.9613 69.6875 15.9801L74.8031 42.2832C74.8046 42.2977 74.8046 42.3124 74.8031 42.327C75.3379 45.2634 74.6751 48.2918 72.9625 50.7363ZM51.25 33.0332C58.8439 33.0332 65 26.8771 65 19.2832C65 11.6893 58.8439 5.5332 51.25 5.5332H23.7156C17.0515 5.53918 11.3556 10.3335 10.2125 16.8988V16.9395L5.09375 43.2176C4.62955 45.8904 5.94265 48.5576 8.34411 49.8196C10.7456 51.0816 13.687 50.6503 15.625 48.752L28.725 33.8801C29.1995 33.3418 29.8824 33.0333 30.6 33.0332H51.25ZM69.9062 43.2176L67.175 29.1551C63.7598 34.6699 57.7367 38.0277 51.25 38.0332H49.9375L59.375 48.7551C60.8184 50.159 62.8476 50.7855 64.8312 50.4394C68.2229 49.8408 70.4911 46.6111 69.9031 43.2176H69.9062Z" fill="white"/>
</svg>
