<svg width="61" height="60" viewBox="0 0 61 60" fill="none" xmlns="http://www.w3.org/2000/svg">
<path d="M42.1499 3.75H19.6499C18.1581 3.75 16.7273 4.34263 15.6724 5.39752C14.6175 6.45242 14.0249 7.88316 14.0249 9.375V50.625C14.0249 52.1168 14.6175 53.5476 15.6724 54.6025C16.7273 55.6574 18.1581 56.25 19.6499 56.25H42.1499C43.6417 56.25 45.0725 55.6574 46.1274 54.6025C47.1823 53.5476 47.7749 52.1168 47.7749 50.625V9.375C47.7749 7.88316 47.1823 6.45242 46.1274 5.39752C45.0725 4.34263 43.6417 3.75 42.1499 3.75ZM44.0249 50.625C44.0249 51.1223 43.8274 51.5992 43.4757 51.9508C43.1241 52.3025 42.6472 52.5 42.1499 52.5H19.6499C19.1526 52.5 18.6757 52.3025 18.3241 51.9508C17.9724 51.5992 17.7749 51.1223 17.7749 50.625V9.375C17.7749 8.87772 17.9724 8.40081 18.3241 8.04918C18.6757 7.69754 19.1526 7.5 19.6499 7.5H42.1499C42.6472 7.5 43.1241 7.69754 43.4757 8.04918C43.8274 8.40081 44.0249 8.87772 44.0249 9.375V50.625ZM33.7124 14.0625C33.7124 14.6188 33.5475 15.1625 33.2384 15.625C32.9294 16.0876 32.4901 16.448 31.9762 16.6609C31.4623 16.8738 30.8968 16.9295 30.3512 16.821C29.8056 16.7124 29.3045 16.4446 28.9112 16.0512C28.5178 15.6579 28.25 15.1568 28.1414 14.6112C28.0329 14.0656 28.0886 13.5001 28.3015 12.9862C28.5144 12.4723 28.8748 12.033 29.3374 11.724C29.7999 11.415 30.3436 11.25 30.8999 11.25C31.6458 11.25 32.3612 11.5463 32.8886 12.0738C33.4161 12.6012 33.7124 13.3166 33.7124 14.0625Z" fill="#EFF6F6"/>
</svg>
