<svg width="36" height="37" viewBox="0 0 36 37" fill="none" xmlns="http://www.w3.org/2000/svg">
<rect y="0.145996" width="36" height="36" rx="8" fill="#E9F8F5"/>
<path d="M18 9.146C21.5951 9.146 23.3928 9.1458 24.6875 10.0024C25.2657 10.385 25.761 10.8803 26.1436 11.4585C27.0002 12.7532 27 14.5509 27 18.146C27 21.7411 27.0002 23.5388 26.1436 24.8335C25.761 25.4117 25.2657 25.907 24.6875 26.2896C23.3928 27.1462 21.5951 27.146 18 27.146C14.4049 27.146 12.6072 27.1462 11.3125 26.2896C10.7343 25.907 10.239 25.4117 9.85645 24.8335C8.9998 23.5388 9 21.7411 9 18.146C9 14.5509 8.9998 12.7532 9.85645 11.4585C10.239 10.8803 10.7343 10.385 11.3125 10.0024C12.6072 9.1458 14.4049 9.146 18 9.146ZM18 13.4868C15.4268 13.4868 13.3409 15.5728 13.3408 18.146C13.3408 20.7193 15.4267 22.8052 18 22.8052C20.5732 22.8051 22.6592 20.7193 22.6592 18.146C22.6591 15.5728 20.5732 13.4869 18 13.4868ZM18 15.063C19.7025 15.0631 21.0829 16.4435 21.083 18.146C21.083 19.8486 19.7026 21.2289 18 21.229C16.2973 21.229 14.917 19.8487 14.917 18.146C14.9171 16.4434 16.2974 15.063 18 15.063ZM22.8438 12.1577C22.2392 12.1577 21.7482 12.6479 21.748 13.2524C21.748 13.8571 22.2391 14.3472 22.8438 14.3472C23.4482 14.3469 23.9385 13.8569 23.9385 13.2524C23.9383 12.6481 23.4481 12.158 22.8438 12.1577Z" fill="#27B79A"/>
</svg>
