<svg width="45" height="71" viewBox="0 0 45 71" fill="none" xmlns="http://www.w3.org/2000/svg">
<path fill-rule="evenodd" clip-rule="evenodd" d="M37.5 0.0332031H7.5C3.35786 0.0332031 0 3.39107 0 7.5332V62.5332C0 66.6753 3.35786 70.0332 7.5 70.0332H37.5C41.6421 70.0332 45 66.6753 45 62.5332V7.5332C45 3.39107 41.6421 0.0332031 37.5 0.0332031ZM5 15.0332H40V55.0332H5V15.0332ZM7.5 5.0332H37.5C38.8807 5.0332 40 6.15249 40 7.5332V10.0332H5V7.5332C5 6.15249 6.11929 5.0332 7.5 5.0332ZM37.5 65.0332H7.5C6.11929 65.0332 5 63.9139 5 62.5332V60.0332H40V62.5332C40 63.9139 38.8807 65.0332 37.5 65.0332Z" fill="white"/>
</svg>
