<svg width="71" height="71" viewBox="0 0 71 71" fill="none" xmlns="http://www.w3.org/2000/svg">
<path fill-rule="evenodd" clip-rule="evenodd" d="M43 25.0332H28C26.6193 25.0332 25.5 26.1525 25.5 27.5332V42.5332C25.5 43.9139 26.6193 45.0332 28 45.0332H43C44.3807 45.0332 45.5 43.9139 45.5 42.5332V27.5332C45.5 26.1525 44.3807 25.0332 43 25.0332ZM40.5 40.0332H30.5V30.0332H40.5V40.0332ZM68 40.0332H63V30.0332H68C69.3807 30.0332 70.5 28.9139 70.5 27.5332C70.5 26.1525 69.3807 25.0332 68 25.0332H63V12.5332C63 9.77178 60.7614 7.5332 58 7.5332H45.5V2.5332C45.5 1.15249 44.3807 0.0332031 43 0.0332031C41.6193 0.0332031 40.5 1.15249 40.5 2.5332V7.5332H30.5V2.5332C30.5 1.15249 29.3807 0.0332031 28 0.0332031C26.6193 0.0332031 25.5 1.15249 25.5 2.5332V7.5332H13C10.2386 7.5332 8 9.77178 8 12.5332V25.0332H3C1.61929 25.0332 0.5 26.1525 0.5 27.5332C0.5 28.9139 1.61929 30.0332 3 30.0332H8V40.0332H3C1.61929 40.0332 0.5 41.1525 0.5 42.5332C0.5 43.9139 1.61929 45.0332 3 45.0332H8V57.5332C8 60.2946 10.2386 62.5332 13 62.5332H25.5V67.5332C25.5 68.9139 26.6193 70.0332 28 70.0332C29.3807 70.0332 30.5 68.9139 30.5 67.5332V62.5332H40.5V67.5332C40.5 68.9139 41.6193 70.0332 43 70.0332C44.3807 70.0332 45.5 68.9139 45.5 67.5332V62.5332H58C60.7614 62.5332 63 60.2946 63 57.5332V45.0332H68C69.3807 45.0332 70.5 43.9139 70.5 42.5332C70.5 41.1525 69.3807 40.0332 68 40.0332ZM58 57.5332H13V12.5332H58V42.4926C58 42.4926 58 42.5207 58 42.5332C58 42.5457 58 42.5613 58 42.5738V57.5332Z" fill="white"/>
</svg>
