<svg width="36" height="37" viewBox="0 0 36 37" fill="none" xmlns="http://www.w3.org/2000/svg">
<rect y="0.145996" width="36" height="36" rx="8" fill="#E9F8F5"/>
<path d="M18.4383 25.1259L14.3761 25.05C13.0608 25.0235 11.7423 25.0764 10.4528 24.8023C8.49128 24.3928 8.35232 22.3849 8.20691 20.7006C8.00654 18.3328 8.08411 15.922 8.46222 13.5739C8.67567 12.2564 9.51571 11.4702 10.8148 11.3846C15.2001 11.0742 19.6146 11.111 23.9903 11.2558C24.4524 11.2691 24.9177 11.3417 25.3734 11.4243C27.6227 11.8272 27.6775 14.1026 27.8233 16.018C27.9688 17.9533 27.9074 19.8984 27.6294 21.8205C27.4065 23.4119 26.9798 24.7464 25.1795 24.8753C22.9237 25.0437 20.7197 25.1793 18.4576 25.1362C18.4577 25.1259 18.4447 25.1259 18.4383 25.1259ZM16.0501 21.0969C17.75 20.0995 19.4175 19.1187 21.1076 18.128C19.4046 17.1306 17.7403 16.1498 16.0501 15.1591V21.0969Z" fill="#27B79A"/>
</svg>
