<svg width="1256" height="284" viewBox="0 0 1256 284" fill="none" xmlns="http://www.w3.org/2000/svg">
<g clip-path="url(#clip0_151_336)">
<path d="M351.92 242.71V204.17L436.92 111.94H352.95V72.02H491.98V110.56L405.6 202.79H493.7V242.71H351.91H351.92Z" fill="#27B79A"/>
<path d="M591.72 246.84C574.05 246.84 558.45 243.11 544.92 235.66C531.38 228.21 520.83 217.88 513.26 204.69C505.69 191.5 501.9 176.3 501.9 159.09C501.9 141.88 505.63 125.71 513.08 111.94C520.53 98.17 531.03 87.39 544.57 79.59C558.1 71.79 573.82 67.89 591.72 67.89C608.7 67.89 623.72 71.56 636.8 78.9C649.88 86.24 660.08 96.28 667.43 109.01C674.77 121.74 678.44 136.26 678.44 152.54V160.28C678.44 163.15 678.21 166.08 677.75 169.06H536.31V140.15H629.57C628.88 130.06 625.04 121.97 618.04 115.89C611.04 109.81 602.38 106.77 592.06 106.77C584.26 106.77 577.09 108.49 570.55 111.93C564.01 115.37 558.85 120.59 555.06 127.59C551.27 134.59 549.38 143.48 549.38 154.26V164.24C549.38 172.96 551.15 180.59 554.71 187.12C558.26 193.66 563.2 198.71 569.51 202.26C575.82 205.82 583.1 207.59 591.36 207.59C599.62 207.59 606.16 205.82 611.66 202.26C617.17 198.71 621.41 194.06 624.39 188.32H673.6C670.38 199.33 664.94 209.26 657.25 218.09C649.56 226.92 640.16 233.92 629.03 239.08C617.9 244.24 605.46 246.82 591.69 246.82L591.72 246.84Z" fill="#27B79A"/>
<path d="M695.33 242.71V72.01H743.51V97.82C748.1 89.34 753.83 82.62 760.72 77.69C767.6 72.76 775.4 70.29 784.12 70.29H805.11V112.96H779.3C770.81 112.96 763.93 115.14 758.65 119.5C753.37 123.86 749.53 130.34 747.12 138.94C744.71 147.54 743.51 158.04 743.51 170.43V242.7H695.33V242.71Z" fill="#27B79A"/>
<path d="M817.95 242.71V72.01H866.13V242.7H817.95V242.71ZM820.01 44.83V0.0899963H864.75V44.83H820.01Z" fill="#27B79A"/>
<path d="M975.21 246.84C958 246.84 942.46 243.05 928.58 235.48C914.7 227.91 903.68 217.36 895.54 203.82C887.39 190.29 883.32 174.8 883.32 157.36C883.32 139.92 887.39 124.15 895.54 110.73C903.68 97.31 914.75 86.81 928.75 79.24C942.74 71.67 958.23 67.88 975.21 67.88C992.19 67.88 1007.96 71.67 1021.84 79.24C1035.72 86.81 1046.73 97.31 1054.88 110.73C1063.02 124.15 1067.1 139.7 1067.1 157.36C1067.1 175.02 1063.02 190.28 1054.88 203.82C1046.73 217.36 1035.72 227.91 1021.84 235.48C1007.96 243.05 992.42 246.84 975.21 246.84ZM975.21 205.2C983.01 205.2 990.12 203.43 996.55 199.87C1002.97 196.32 1008.08 190.98 1011.86 183.87C1015.65 176.76 1017.54 167.93 1017.54 157.37C1017.54 146.81 1015.59 137.99 1011.69 130.87C1007.79 123.76 1002.68 118.43 996.38 114.87C990.07 111.32 983.13 109.54 975.56 109.54C967.99 109.54 960.64 111.32 954.22 114.87C947.79 118.43 942.63 123.7 938.73 130.7C934.83 137.7 932.88 146.59 932.88 157.37C932.88 168.15 934.77 176.76 938.56 183.87C942.35 190.98 947.45 196.32 953.87 199.87C960.29 203.43 967.41 205.2 975.21 205.2Z" fill="#27B79A"/>
<path d="M1084.13 242.71V72.01H1132.31V97.13C1137.82 88.18 1145.33 81.07 1154.85 75.79C1164.37 70.51 1175.55 67.87 1188.4 67.87C1209.96 67.87 1226.48 74.7 1237.96 88.35C1249.43 102 1255.17 121.68 1255.17 147.37V242.7H1206.99V151.85C1206.99 137.86 1204.18 127.13 1198.56 119.67C1192.94 112.22 1184.05 108.49 1171.89 108.49C1160.42 108.49 1150.95 112.57 1143.5 120.71C1136.04 128.86 1132.32 140.15 1132.32 154.61V242.71H1084.14H1084.13Z" fill="#27B79A"/>
<path d="M51.13 31.56C67.01 30.58 83.72 37.64 93.99 49.82C100.13 57.1 102.59 69.01 112.07 71.99C114.04 72.61 115.83 72.86 117.5 72.85C124.15 72.81 129.19 69.93 131.53 68.43C146.2 58.98 178.66 31.32 201.49 21.96C227.95 11.12 264.24 15.53 278.38 34.85C285.5 44.59 286.15 56.94 286.36 61.07C287.17 76.57 281.11 88.18 275.72 98.24C275.08 99.44 266.29 115.6 253.04 127.74C207.67 169.31 124.45 150.49 105.04 190.41C104.55 191.42 98.08 205.1 103.71 212.19C112.96 223.85 153.51 215.91 179.29 199.17C185.46 195.17 198.67 186.35 218.73 181.43C221.47 180.76 224.24 180.33 227.52 180.03C267.39 176.34 297.29 213.54 282.53 251.47C267.61 289.81 214.2 295.63 191.1 261.6C186.42 254.71 185.6 247.14 176.74 243.92C171.68 242.08 168.58 242.69 163.6 244.27C154.43 247.17 111.44 271.49 86.34 278.74C79.43 280.74 47.91 289.84 23.71 273.52C11.24 265.11 5.71001 253.33 4.60001 250.85C-3.00999 233.95 0.76001 218.2 2.17001 212.63C9.74001 182.71 37.37 167.92 42.97 164.93C52.07 160.06 70.74 156.67 107.71 150.09C136.77 144.91 149.4 143.46 157.34 132.34C163.23 124.1 166.11 111.15 160.9 105.67C152.82 97.17 127.06 108.47 107.75 116.94C84.06 127.33 74.44 135.71 54.93 136.14C48.82 136.27 42.18 135.16 34.64 132.17C-16.48 111.89 -4.38999 34.98 51.13 31.56Z" fill="#27B79A"/>
</g>
<defs>
<clipPath id="clip0_151_336">
<rect width="1255.17" height="283.91" fill="white" transform="translate(0 0.0899963)"/>
</clipPath>
</defs>
</svg>
